<svg width="58" height="49" viewBox="0 0 58 49" fill="none" xmlns="http://www.w3.org/2000/svg">
<g filter="url(#filter0_d_1_272)">
<g filter="url(#filter1_d_1_272)">
<path d="M-8 6H32.5C42.165 6 50 13.835 50 23.5C50 33.165 42.165 41 32.5 41H-8V6Z" fill="#FF922C" fill-opacity="0.11" shape-rendering="crispEdges"/>
<path d="M-5.5 8.5H32.5C40.7843 8.5 47.5 15.2157 47.5 23.5C47.5 31.7843 40.7843 38.5 32.5 38.5H-5.5V8.5Z" stroke="white" stroke-width="5" shape-rendering="crispEdges"/>
</g>
<g filter="url(#filter2_d_1_272)">
<path d="M33 19H31V23H27V25H31V29H33V25H37V23H33V19ZM32 14C26.48 14 22 18.48 22 24C22 29.52 26.48 34 32 34C37.52 34 42 29.52 42 24C42 18.48 37.52 14 32 14ZM32 32C27.59 32 24 28.41 24 24C24 19.59 27.59 16 32 16C36.41 16 40 19.59 40 24C40 28.41 36.41 32 32 32Z" fill="#FF922C"/>
</g>
</g>
<defs>
<filter id="filter0_d_1_272" x="-12" y="6" width="66" height="43" filterUnits="userSpaceOnUse" color-interpolation-filters="sRGB">
<feFlood flood-opacity="0" result="BackgroundImageFix"/>
<feColorMatrix in="SourceAlpha" type="matrix" values="0 0 0 0 0 0 0 0 0 0 0 0 0 0 0 0 0 0 127 0" result="hardAlpha"/>
<feOffset dy="4"/>
<feGaussianBlur stdDeviation="2"/>
<feComposite in2="hardAlpha" operator="out"/>
<feColorMatrix type="matrix" values="0 0 0 0 0 0 0 0 0 0 0 0 0 0 0 0 0 0 0.25 0"/>
<feBlend mode="normal" in2="BackgroundImageFix" result="effect1_dropShadow_1_272"/>
<feBlend mode="normal" in="SourceGraphic" in2="effect1_dropShadow_1_272" result="shape"/>
</filter>
<filter id="filter1_d_1_272" x="-12" y="0" width="70" height="47" filterUnits="userSpaceOnUse" color-interpolation-filters="sRGB">
<feFlood flood-opacity="0" result="BackgroundImageFix"/>
<feColorMatrix in="SourceAlpha" type="matrix" values="0 0 0 0 0 0 0 0 0 0 0 0 0 0 0 0 0 0 127 0" result="hardAlpha"/>
<feOffset dx="2"/>
<feGaussianBlur stdDeviation="3"/>
<feComposite in2="hardAlpha" operator="out"/>
<feColorMatrix type="matrix" values="0 0 0 0 0.666522 0 0 0 0 0.655134 0 0 0 0 0.655134 0 0 0 0.46 0"/>
<feBlend mode="normal" in2="BackgroundImageFix" result="effect1_dropShadow_1_272"/>
<feBlend mode="normal" in="SourceGraphic" in2="effect1_dropShadow_1_272" result="shape"/>
</filter>
<filter id="filter2_d_1_272" x="18" y="10" width="28" height="28" filterUnits="userSpaceOnUse" color-interpolation-filters="sRGB">
<feFlood flood-opacity="0" result="BackgroundImageFix"/>
<feColorMatrix in="SourceAlpha" type="matrix" values="0 0 0 0 0 0 0 0 0 0 0 0 0 0 0 0 0 0 127 0" result="hardAlpha"/>
<feOffset/>
<feGaussianBlur stdDeviation="2"/>
<feComposite in2="hardAlpha" operator="out"/>
<feColorMatrix type="matrix" values="0 0 0 0 0 0 0 0 0 0 0 0 0 0 0 0 0 0 0.25 0"/>
<feBlend mode="normal" in2="BackgroundImageFix" result="effect1_dropShadow_1_272"/>
<feBlend mode="normal" in="SourceGraphic" in2="effect1_dropShadow_1_272" result="shape"/>
</filter>
</defs>
</svg>
