<svg width="243" height="120" viewBox="0 0 243 120" fill="none" xmlns="http://www.w3.org/2000/svg">
<g filter="url(#filter0_d_1_264)">
<g filter="url(#filter1_d_1_264)">
<rect x="40" y="20" width="163" height="48" rx="24" fill="#FF922C"/>
</g>
<path d="M86.122 49.091C85.264 49.091 84.4753 48.8917 83.756 48.493C83.0453 48.0943 82.4777 47.5397 82.053 46.829C81.637 46.1097 81.429 45.3037 81.429 44.411C81.429 43.5183 81.637 42.7167 82.053 42.006C82.4777 41.2953 83.0453 40.7407 83.756 40.342C84.4753 39.9433 85.264 39.744 86.122 39.744C86.98 39.744 87.7643 39.9433 88.475 40.342C89.1943 40.7407 89.7577 41.2953 90.165 42.006C90.581 42.7167 90.789 43.5183 90.789 44.411C90.789 45.3037 90.581 46.1097 90.165 46.829C89.749 47.5397 89.1857 48.0943 88.475 48.493C87.7643 48.8917 86.98 49.091 86.122 49.091ZM86.122 47.063C86.85 47.063 87.4307 46.8203 87.864 46.335C88.306 45.8497 88.527 45.2083 88.527 44.411C88.527 43.605 88.306 42.9637 87.864 42.487C87.4307 42.0017 86.85 41.759 86.122 41.759C85.3853 41.759 84.796 41.9973 84.354 42.474C83.9207 42.9507 83.704 43.5963 83.704 44.411C83.704 45.217 83.9207 45.8627 84.354 46.348C84.796 46.8247 85.3853 47.063 86.122 47.063ZM96.6797 49L94.7817 45.555H94.2487V49H92.0257V39.874H95.7567C96.4761 39.874 97.0871 39.9997 97.5897 40.251C98.1011 40.5023 98.4824 40.849 98.7337 41.291C98.9851 41.7243 99.1107 42.2097 99.1107 42.747C99.1107 43.3537 98.9374 43.8953 98.5907 44.372C98.2527 44.8487 97.7501 45.1867 97.0827 45.386L99.1887 49H96.6797ZM94.2487 43.982H95.6267C96.0341 43.982 96.3374 43.8823 96.5367 43.683C96.7447 43.4837 96.8487 43.202 96.8487 42.838C96.8487 42.4913 96.7447 42.2183 96.5367 42.019C96.3374 41.8197 96.0341 41.72 95.6267 41.72H94.2487V43.982ZM103.925 39.874C104.887 39.874 105.728 40.0647 106.447 40.446C107.167 40.8273 107.721 41.3647 108.111 42.058C108.51 42.7427 108.709 43.5357 108.709 44.437C108.709 45.3297 108.51 46.1227 108.111 46.816C107.721 47.5093 107.162 48.0467 106.434 48.428C105.715 48.8093 104.879 49 103.925 49H100.506V39.874H103.925ZM103.782 47.076C104.623 47.076 105.277 46.8463 105.745 46.387C106.213 45.9277 106.447 45.2777 106.447 44.437C106.447 43.5963 106.213 42.942 105.745 42.474C105.277 42.006 104.623 41.772 103.782 41.772H102.729V47.076H103.782ZM112.175 41.655V43.501H115.152V45.217H112.175V47.219H115.542V49H109.952V39.874H115.542V41.655H112.175ZM121.639 49L119.741 45.555H119.208V49H116.985V39.874H120.716C121.435 39.874 122.046 39.9997 122.549 40.251C123.06 40.5023 123.441 40.849 123.693 41.291C123.944 41.7243 124.07 42.2097 124.07 42.747C124.07 43.3537 123.896 43.8953 123.55 44.372C123.212 44.8487 122.709 45.1867 122.042 45.386L124.148 49H121.639ZM119.208 43.982H120.586C120.993 43.982 121.296 43.8823 121.496 43.683C121.704 43.4837 121.808 43.202 121.808 42.838C121.808 42.4913 121.704 42.2183 121.496 42.019C121.296 41.8197 120.993 41.72 120.586 41.72H119.208V43.982ZM136.384 49H134.161L130.443 43.371V49H128.22V39.874H130.443L134.161 45.529V39.874H136.384V49ZM142.311 49.091C141.453 49.091 140.665 48.8917 139.945 48.493C139.235 48.0943 138.667 47.5397 138.242 46.829C137.826 46.1097 137.618 45.3037 137.618 44.411C137.618 43.5183 137.826 42.7167 138.242 42.006C138.667 41.2953 139.235 40.7407 139.945 40.342C140.665 39.9433 141.453 39.744 142.311 39.744C143.169 39.744 143.954 39.9433 144.664 40.342C145.384 40.7407 145.947 41.2953 146.354 42.006C146.77 42.7167 146.978 43.5183 146.978 44.411C146.978 45.3037 146.77 46.1097 146.354 46.829C145.938 47.5397 145.375 48.0943 144.664 48.493C143.954 48.8917 143.169 49.091 142.311 49.091ZM142.311 47.063C143.039 47.063 143.62 46.8203 144.053 46.335C144.495 45.8497 144.716 45.2083 144.716 44.411C144.716 43.605 144.495 42.9637 144.053 42.487C143.62 42.0017 143.039 41.759 142.311 41.759C141.575 41.759 140.985 41.9973 140.543 42.474C140.11 42.9507 139.893 43.5963 139.893 44.411C139.893 45.217 140.11 45.8627 140.543 46.348C140.985 46.8247 141.575 47.063 142.311 47.063ZM160.773 39.874L158.394 49H155.703L154.247 42.994L152.739 49H150.048L147.734 39.874H150.113L151.426 46.517L153.051 39.874H155.495L157.055 46.517L158.381 39.874H160.773Z" fill="white"/>
</g>
<defs>
<filter id="filter0_d_1_264" x="36" y="20" width="171" height="56" filterUnits="userSpaceOnUse" color-interpolation-filters="sRGB">
<feFlood flood-opacity="0" result="BackgroundImageFix"/>
<feColorMatrix in="SourceAlpha" type="matrix" values="0 0 0 0 0 0 0 0 0 0 0 0 0 0 0 0 0 0 127 0" result="hardAlpha"/>
<feOffset dy="4"/>
<feGaussianBlur stdDeviation="2"/>
<feComposite in2="hardAlpha" operator="out"/>
<feColorMatrix type="matrix" values="0 0 0 0 0 0 0 0 0 0 0 0 0 0 0 0 0 0 0.25 0"/>
<feBlend mode="normal" in2="BackgroundImageFix" result="effect1_dropShadow_1_264"/>
<feBlend mode="normal" in="SourceGraphic" in2="effect1_dropShadow_1_264" result="shape"/>
</filter>
<filter id="filter1_d_1_264" x="0" y="0" width="243" height="128" filterUnits="userSpaceOnUse" color-interpolation-filters="sRGB">
<feFlood flood-opacity="0" result="BackgroundImageFix"/>
<feColorMatrix in="SourceAlpha" type="matrix" values="0 0 0 0 0 0 0 0 0 0 0 0 0 0 0 0 0 0 127 0" result="hardAlpha"/>
<feOffset dy="20"/>
<feGaussianBlur stdDeviation="20"/>
<feColorMatrix type="matrix" values="0 0 0 0 0.958333 0 0 0 0 0.886137 0 0 0 0 0.818576 0 0 0 1 0"/>
<feBlend mode="normal" in2="BackgroundImageFix" result="effect1_dropShadow_1_264"/>
<feBlend mode="normal" in="SourceGraphic" in2="effect1_dropShadow_1_264" result="shape"/>
</filter>
</defs>
</svg>
